<?xml version="1.0" standalone="no"?>
<!DOCTYPE svg PUBLIC "-//W3C//DTD SVG 20010904//EN"
 "http://www.w3.org/TR/2001/REC-SVG-20010904/DTD/svg10.dtd">
<svg version="1.0" xmlns="http://www.w3.org/2000/svg"
 width="1280.000000pt" height="1109.000000pt" viewBox="0 0 1280.000000 1109.000000"
 preserveAspectRatio="xMidYMid meet">
<metadata>
Created by potrace 1.15, written by Peter Selinger 2001-2017
</metadata>
<g transform="translate(0.000000,1109.000000) scale(0.100000,-0.100000)"
fill="#000000" stroke="none">
<path d="M2350 11065 c-367 -41 -580 -142 -659 -311 -31 -65 -28 -97 14 -131
41 -34 72 -50 377 -197 349 -168 486 -255 625 -397 129 -133 183 -252 183
-408 0 -143 -47 -271 -144 -390 -180 -224 -369 -528 -501 -806 -136 -284 -670
-1587 -804 -1958 -302 -838 -433 -1465 -448 -2139 -5 -246 4 -496 25 -660 11
-80 -3 -343 -23 -428 -24 -107 -92 -241 -170 -335 -36 -44 -93 -114 -127 -155
-204 -250 -354 -572 -442 -951 -57 -247 -84 -435 -136 -939 -42 -409 -69 -608
-104 -775 -8 -38 -13 -71 -11 -73 1 -2 83 111 181 250 322 458 405 559 675
823 286 280 449 405 669 516 327 164 624 158 995 -21 66 -31 237 -128 380
-214 249 -151 421 -244 431 -233 8 8 -27 159 -63 267 -72 219 -223 483 -408
715 -43 55 -179 200 -301 322 -293 294 -355 376 -415 554 -56 168 -61 334 -19
599 19 114 32 158 102 333 276 698 640 1259 1143 1762 454 455 958 810 1650
1159 284 144 828 386 867 386 8 0 7 -40 -13 -380 -31 -536 -140 -831 -417
-1131 l-61 -66 112 -6 c137 -6 390 8 512 29 313 53 591 179 829 373 92 75 237
228 318 333 155 204 318 505 502 928 46 107 96 220 109 251 l25 56 159 6 c333
14 807 -20 1138 -83 263 -50 371 -82 708 -211 1125 -431 1905 -670 2397 -735
148 -19 372 -15 435 8 l40 15 -105 33 c-377 116 -593 231 -867 462 -167 140
-271 177 -572 203 -204 17 -300 34 -404 72 -81 29 -179 81 -222 119 l-30 26
30 -20 c56 -37 170 -90 235 -110 100 -30 186 -41 421 -52 315 -15 396 -40 576
-179 211 -163 406 -264 678 -351 140 -44 344 -93 362 -86 27 11 12 104 -31
191 -102 207 -453 474 -771 589 -16 6 -9 13 44 37 98 44 145 88 187 174 33 67
38 85 42 173 8 174 -48 378 -173 629 -135 272 -259 440 -473 641 -950 894
-1958 1442 -3132 1702 -812 180 -1768 198 -2640 48 -221 -38 -687 -24 -1380
42 -226 21 -319 30 -420 40 -398 38 -514 48 -782 65 -278 18 -748 18 -908 0z"/>
</g>
</svg>
