<?xml version="1.0" standalone="no"?>
<!DOCTYPE svg PUBLIC "-//W3C//DTD SVG 20010904//EN"
 "http://www.w3.org/TR/2001/REC-SVG-20010904/DTD/svg10.dtd">
<svg version="1.0" xmlns="http://www.w3.org/2000/svg"
 width="1280.000000pt" height="931.000000pt" viewBox="0 0 1280.000000 931.000000"
 preserveAspectRatio="xMidYMid meet">
<metadata>
Created by potrace 1.15, written by Peter Selinger 2001-2017
</metadata>
<g transform="translate(0.000000,931.000000) scale(0.100000,-0.100000)"
fill="#000000" stroke="none">
<path d="M9425 7751 c-747 -551 -944 -696 -3615 -2666 -811 -598 -1710 -1262
-1998 -1474 -288 -212 -528 -386 -533 -386 -6 0 -142 -241 -303 -535 -249
-454 -325 -584 -504 -857 -117 -178 -213 -328 -214 -335 -2 -7 4 -12 13 -10 9
1 189 63 400 138 215 76 609 204 894 290 281 84 528 162 550 172 22 11 375
267 785 569 410 302 1528 1127 2485 1833 957 705 2164 1595 2681 1977 l941
694 -69 217 -70 217 -163 220 -162 220 -174 123 c-96 68 -181 127 -189 132
-11 6 -214 -139 -755 -539z"/>
</g>
</svg>
